<svg width="60" height="27" viewBox="0 0 60 27" fill="none" xmlns="http://www.w3.org/2000/svg">
<path d="M16.6839 0.728027V5.66003H6.38793V10.988H14.0919V15.776H6.38793V26H0.231934V0.728027H16.6839Z" fill="#A3C9F1"/>
<path d="M48.5394 0.728027V26H42.3834V10.844L36.7314 26H31.7634L26.0754 10.808V26H19.9194V0.728027H27.1914L34.2834 18.224L41.3034 0.728027H48.5394Z" fill="#A3C9F1"/>
<path d="M55.8463 26.288C54.7663 26.288 53.8783 25.976 53.1823 25.352C52.5103 24.704 52.1743 23.912 52.1743 22.976C52.1743 22.016 52.5103 21.212 53.1823 20.564C53.8783 19.916 54.7663 19.592 55.8463 19.592C56.9023 19.592 57.7663 19.916 58.4383 20.564C59.1343 21.212 59.4823 22.016 59.4823 22.976C59.4823 23.912 59.1343 24.704 58.4383 25.352C57.7663 25.976 56.9023 26.288 55.8463 26.288Z" fill="#A3C9F1"/>
</svg>
